<?xml version="1.0" encoding="UTF-8"?>
<svg width="700pt" height="700pt" version="1.1" viewBox="0 0 700 700" xmlns="http://www.w3.org/2000/svg" xmlns:xlink="http://www.w3.org/1999/xlink">
 <g>
  <path d="m131.6 440.59c-3.0898 0-5.6016 2.5078-5.6016 5.6016v52.211c0 3.0898 2.5078 5.6016 5.6016 5.6016h436.8c3.0898 0 5.6016-2.5078 5.6016-5.6016v-52.215c0-3.0898-2.5078-5.6016-5.6016-5.6016h-9.2852l-0.003907-321.17h9.2852c3.0898 0 5.6016-2.5078 5.6016-5.6016v-52.211c0-3.0898-2.5078-5.6016-5.6016-5.6016h-436.8c-3.0898 0-5.6016 2.5078-5.6016 5.6016v52.215c0 3.0898 2.5078 5.6016 5.6016 5.6016h8.1875v321.17zm431.2 52.215h-425.6v-41.016h425.6zm-326.78-373.39v321.17h-61.859v-321.17zm226.85 321.17v-321.17h61.859v321.17zm-11.203 0h-11.977v-321.17h11.977zm-23.172 0h-61.863v-321.17h61.859v321.17zm-73.062 0h-11.977v-321.17h11.977zm-23.172 0h-61.863v-321.17h61.859l-0.003907 321.17zm-73.062 0h-11.977l-0.003906-321.17h11.977zm288.71 0h-11.977v-321.17h11.977zm-410.71-373.39h425.6v41.016h-425.6zm13.789 52.215h11.977v321.17h-11.977z"/>
  <use x="70" y="644" xlink:href="#s"/>
  <use x="90.550781" y="644" xlink:href="#c"/>
  <use x="104.359375" y="644" xlink:href="#a"/>
  <use x="123.347656" y="644" xlink:href="#f"/>
  <use x="142.242188" y="644" xlink:href="#b"/>
  <use x="155.628906" y="644" xlink:href="#a"/>
  <use x="174.617188" y="644" xlink:href="#e"/>
  <use x="204.410156" y="644" xlink:href="#i"/>
  <use x="224.453125" y="644" xlink:href="#h"/>
  <use x="252.453125" y="644" xlink:href="#g"/>
  <use x="280.3125" y="644" xlink:href="#f"/>
  <use x="299.210938" y="644" xlink:href="#e"/>
  <use x="319.25" y="644" xlink:href="#a"/>
  <use x="70" y="672" xlink:href="#r"/>
  <use x="82.183594" y="672" xlink:href="#c"/>
  <use x="95.992188" y="672" xlink:href="#d"/>
  <use x="115.226562" y="672" xlink:href="#q"/>
  <use x="154.152344" y="672" xlink:href="#b"/>
  <use x="167.535156" y="672" xlink:href="#p"/>
  <use x="187.46875" y="672" xlink:href="#a"/>
  <use x="216.207031" y="672" xlink:href="#o"/>
  <use x="239.640625" y="672" xlink:href="#d"/>
  <use x="258.878906" y="672" xlink:href="#n"/>
  <use x="278.8125" y="672" xlink:href="#m"/>
  <use x="308.492188" y="672" xlink:href="#l"/>
  <use x="329.015625" y="672" xlink:href="#c"/>
  <use x="342.820312" y="672" xlink:href="#d"/>
  <use x="362.058594" y="672" xlink:href="#k"/>
  <use x="371.65625" y="672" xlink:href="#a"/>
  <use x="390.648438" y="672" xlink:href="#j"/>
  <use x="407.242188" y="672" xlink:href="#b"/>
 </g>
</svg>
